<svg xmlns="http://www.w3.org/2000/svg" width="193" height="191" fill="none" viewBox="0 0 193 191"><g clip-path="url(#a)"><rect width="145" height="142" x="46" y="2" fill="#00c950" rx="28"/><path fill="#00c950" d="M2 92c0-15.464 12.542-28 28.006-28h84.988C130.458 64 143 76.536 143 92v69c0 15.464-12.536 28-28 28H30c-15.464 0-28-12.536-28-28z"/><path fill="#00c950" stroke="#00c950" d="M54 12 6 79.5l125 104 53-50z"/><path fill="#fff" d="M76.75 138V28.215h83.07V51.42h-56.355v20.085h41.925v21.84h-41.925v23.01h58.5V138z"/></g><defs><clipPath id="a"><path fill="#fff" d="M0 0h193v191H0z"/></clipPath></defs></svg>